<svg id="Layer_1" data-name="Layer 1" xmlns="http://www.w3.org/2000/svg" viewBox="0 0 1280 800"><defs><style>.cls-1{fill:#2c2c2e;}.cls-2{fill:#71706f;}.cls-3{fill:#949494;}.cls-4{fill:#535357;}.cls-5{fill:#c4c4c4;}.cls-6{fill:#f5f5f5;}</style></defs><title>Artboard 1</title><g id="Tone_arm" data-name="Tone arm"><circle class="cls-1" cx="653.38" cy="280.73" r="50"/><path class="cls-2" d="M663,452.16S646.86,462.54,646,485.6c-.71,19.77-.74,20.47-36.36,68.26a13,13,0,0,0-10.15,3.82l-22,22.73a4,4,0,0,0,0,5.57l12.55,13a4,4,0,0,0,5.7,0l11.83-12.27,2.08,2h0l11.65,11.13a3,3,0,0,0,4.14-4.34l-7.11-6.79h0l-6.6-6.3,6.29-6.52a13,13,0,0,0,3.67-10.28c38.55-51.71,40.11-54.33,41-79.46C663.57,462.73,663,457.88,663,452.16Z"/><path class="cls-3" d="M625.47,590.21l-16.68-15.94-4.14,4.34,16.68,15.94a3,3,0,0,0,4.24-.1h0A3,3,0,0,0,625.47,590.21Z"/><path class="cls-3" d="M661.74,298.07l-16.71.22c0,1.4,1.82,158.89,1,182-.73,20.49-.73,20.49-40.38,73.66h0a4,4,0,0,0,.81,5.56l7,5.24a4,4,0,0,0,5.55-.81h0c41.16-55.19,42.76-57.35,43.68-83C663.57,457.38,661.82,303.79,661.74,298.07Z"/><path class="cls-3" d="M662.12,283.74c11-31.15,22-62.35,26.08-74.12a5,5,0,0,0-3.07-6.37L678.79,201a5,5,0,0,0-6.37,3.06c-4.06,11.6-15,42.81-26,73.92Z"/><path class="cls-4" d="M690.62,212.32l-21.21-8.07a5,5,0,0,0-6.49,3L652,238.3a5,5,0,0,0,2.9,6.36l21.19,8.19a5,5,0,0,0,6.51-3l10.94-31.25A5,5,0,0,0,690.62,212.32Z"/><path class="cls-5" d="M660.93,212.93,656.1,226.7l30.51,11.79,4.87-13.92Z"/><circle class="cls-5" cx="653.38" cy="280.73" r="25"/><path class="cls-3" d="M637.24,261.65a25,25,0,0,0-7.51,11l17.39,17.55h0a9,9,0,0,0,15.13-4.89,19.5,19.5,0,0,0,.13-3.71Z"/><path class="cls-6" d="M659.84,274.47h0l-25.75-26a5,5,0,0,0-7.07,0l-5.66,5.66a5,5,0,0,0,0,7.07l25.75,26h0a9,9,0,0,0,12.72-12.72Z"/><circle class="cls-5" cx="680.6" cy="305.11" r="7.5"/><path class="cls-4" d="M618,570.59l-22.28,23.12a4,4,0,0,1-5.7,0l-12.55-13a4,4,0,0,1,0-5.57l22-22.73A13,13,0,0,1,618,570.59Z"/></g></svg>