<?xml version="1.0" encoding="iso-8859-1"?>
<!-- Generator: Adobe Illustrator 21.1.0, SVG Export Plug-In . SVG Version: 6.00 Build 0)  -->
<svg version="1.1" id="Layer_1" xmlns="http://www.w3.org/2000/svg" xmlns:xlink="http://www.w3.org/1999/xlink" x="0px" y="0px"
	 viewBox="0 0 1000 1000" style="enable-background:new 0 0 1000 1000;" xml:space="preserve">
<g>
	<g>
		<path style="fill:#F5F5F5;" d="M286.49,620.823l-0.232-1.073c0.184-0.039,0.36-0.072,0.543-0.111
			C286.698,620.041,286.595,620.437,286.49,620.823z M617.222,640.788c-5.929,0.987-11.851,2.01-17.764,3.06
			C603.823,641.931,610.24,641.121,617.222,640.788z"/>
	</g>
</g>
<g>
	<g>
		<polygon style="fill:#858585;" points="621.35,910.549 550.538,909.623 483.668,931.854 415.334,930.926 302.618,893.362 
			198.308,833.958 81.757,793.635 157.594,777.435 223.738,747.218 293.55,739.798 415.555,778.945 529.718,840.114 
			653.488,879.856 637.362,886.7 634.444,902.409 		"/>
		<polygon style="fill:#525252;" points="256.706,772.209 538.692,890.542 533.656,849.419 287.759,753.745 		"/>
		<polygon style="fill:#757575;" points="589.077,906.458 516.032,918.236 173.622,768.852 223.976,752.066 		"/>
	</g>
	<path style="fill:#DD9328;" d="M189.567,404.62l43.27-19.306c0,0,56.645,220.291,57.904,232.879
		c1.259,12.587,12.589,125.88,12.589,125.88l-46.624,28.136c0,0-20.093-131.358-32.681-191.78
		C211.438,520.007,189.567,404.62,189.567,404.62z"/>
	<path style="fill:#231F20;" d="M156.837,396.228l32.73,8.393c0,0,33.569,175.402,41.122,206.454
		c7.553,31.052,26.017,161.135,26.017,161.135l-36.087-14.268L156.837,396.228z"/>
	<polygon style="fill:#835B21;" points="268.456,585.896 218.941,392.032 232.837,385.315 282.723,579.183 	"/>
	<polygon style="fill:#5D99A1;" points="245.426,346.292 281.932,337.481 324.685,547.852 290.743,526.301 	"/>
	<polygon style="fill:#46747A;" points="324.686,551.208 270.975,352.588 277.129,345.874 259.225,350.91 308.461,541.697 	"/>
	<polygon style="fill:#73C7B8;" points="269.343,530.077 218.991,337.481 300.812,317.34 281.932,337.481 245.426,346.292 
		297.83,546.173 	"/>
	<path style="fill:#5DA195;" d="M297.27,549.53l-15.665-13.428c0,0-43.641-180.157-49.236-193.585
		c12.309-3.917,60.985-15.666,60.985-15.666l-6.714,9.511l-41.214,9.93L297.27,549.53z"/>
	<polygon style="fill:#B34422;" points="435.501,591.754 736.354,321.111 473.995,115.109 213.423,420.998 	"/>
	<path style="fill:#73C7B8;" d="M464.002,458.332c0,0,68.817-30.772,171.205-66.02c22.94-7.834,187.99-67.14,187.99-67.14
		l1.119,35.248L486.941,501.973l14.546,119.173h-8.951C492.536,621.146,464.002,497.496,464.002,458.332z"/>
	<polygon style="fill:#5DA195;" points="483.337,582.944 477.043,469.652 824.034,346.713 824.316,360.421 	"/>
	<path style="fill:#C07427;" d="M521.068,519.597l334.874-156.94l18.883,349.946L589.077,906.458c0,0-28.952-103.222-40.281-185.044
		C537.466,639.592,521.068,519.597,521.068,519.597z"/>
	<path style="fill:#231F20;" d="M255.867,591.771l252.612,90.639l25.177,167.009l-245.898-95.674c0,0-6.714-46.997-11.749-73.014
		C270.974,654.715,255.867,591.771,255.867,591.771z"/>
	<polygon style="fill:#DD9328;" points="255.867,591.771 285.707,576.652 502.221,650.922 508.479,682.41 	"/>
	<path style="fill:#8F361B;" d="M329.763,508.675l53.669-110.768c0,0,303.806-106.584,309.68-109.102
		c10.91,5.036,12.589,8.393,12.589,8.393S409.449,403.781,401.056,410.495c3.357,12.589,37.766,180.438,37.766,180.438
		L329.763,508.675z"/>
	<polygon style="fill:#231F20;" points="754.377,793.19 787.947,793.19 844.176,757.102 839.141,737.8 	"/>
	<polygon style="fill:#231F20;" points="588.207,905.648 621.777,905.648 678.006,869.56 672.971,850.258 	"/>
	<path style="fill:#231F20;" d="M601.635,559.041c0,0-4.196-13.428,10.071-26.017c14.267-12.588,38.605-23.498,38.605-23.498
		l72.175-29.374c0,0,22.659,2.518,24.338,12.589c1.679,10.07-6.714,20.98-13.428,26.017c-6.714,5.035-93.156,44.479-93.156,44.479
		S602.475,572.469,601.635,559.041z"/>
	<path style="fill:#6AA15D;" d="M442.74,606.599c0,0-41.963-182.395-39.165-199.74c12.309-5.035,350.246-123.647,350.246-123.647
		l2.238,30.772c0,0-307.164,101.269-323.389,120.851c2.798,18.463,32.45,177.359,32.45,177.359L442.74,606.599z"/>
	<path style="fill:#5D99A1;" d="M465.12,612.193l-32.45-177.359c0,0,57.069-31.332,182.955-73.294
		c29.654-8.953,191.348-63.223,191.348-63.223l-0.559,32.449c0,0-331.78,115.256-342.411,127.565
		c1.119,12.869,24.618,148.266,28.534,162.814C477.43,616.669,465.12,612.193,465.12,612.193z"/>
	<path style="fill:#46747A;" d="M485.26,590.933l-21.258-132.601c0,0,148.543-59.586,182.952-71.336
		c34.409-11.749,159.459-56.229,159.459-56.229l-0.003-16.784c0,0-347.446,120.012-359.195,133.44
		c2.518,21.82,13.464,124.194,13.464,124.194L485.26,590.933z"/>
	<path style="fill:#56824B;" d="M460.082,589.254l-27.413-154.42c0,0,16.224-10.911,38.883-20.143
		c22.659-9.231,284.506-100.708,284.506-100.708l-0.842-13.429c0,0-261.844,90.638-287.86,101.548
		c-26.017,10.91-47.864,21.898-47.864,21.898l17.269,151.391L460.082,589.254z"/>
	<polygon style="fill:#231F20;" points="269.295,522.674 297.83,546.173 291.116,522.114 324.685,547.852 309.579,495.259 
		349.862,526.031 438.822,590.933 433.227,568.553 460.082,589.254 453.929,563.517 485.26,590.933 480.225,565.755 
		495.331,586.457 505.962,650.239 389.027,612.753 282.723,576.386 	"/>
	<polygon style="fill:#FFD57D;" points="156.837,396.228 189.567,404.62 232.837,385.315 227.803,367.692 	"/>
	<path style="fill:#231F20;" d="M674.649,848.58l1.679,18.463l-56.229,37.766l-34.409,5.875l-46.997-20.142l-54.551-386.891
		l36.927,15.945c0,0,19.302,161.974,31.052,212.328c11.749,50.354,31.891,172.045,31.891,172.045L674.649,848.58z"/>
	<polygon style="fill:#FFD57D;" points="486.941,501.973 521.07,517.079 853.969,363.777 824.316,360.421 	"/>
	<g>
		<path style="fill:#FFD57D;" d="M725.843,480.991c0,0,18.464,0,20.981,11.75c2.518,11.749-3.357,19.303-13.428,26.017
			c-10.071,6.714-80.848,39.165-93.156,44.479c-12.309,5.315-34.409,5.035-38.605-4.196c3.357,9.232,9.232,27.695,42.802,22.659
			c22.659-9.231,118.333-57.907,118.333-57.907s20.142-21.82,14.268-39.444c-5.875-17.624-19.303-20.142-26.856-17.624
			C742.628,469.242,725.843,480.991,725.843,480.991z"/>
		<path style="opacity:0.5;fill:#835B21;" d="M722.486,480.152c0,0,22.659-1.679,24.338,12.589
			c1.679,14.267-13.428,26.017-13.428,26.017s28.534-1.679,29.373,5.035c7.554-10.91,19.303-26.017,14.268-39.444
			c-5.036-13.428-19.303-20.142-26.856-17.624C742.628,469.242,722.486,480.152,722.486,480.152z"/>
	</g>
	<polygon style="fill:#835B21;" points="218.941,392.032 192.924,381.961 227.803,367.692 232.837,385.315 	"/>
	<path style="fill:#835B21;" d="M251.392,589.255l-13.428,62.104l18.743,120.851l31.052-18.464c0,0-6.155-64.9-13.428-89.518
		C267.058,639.609,251.392,589.255,251.392,589.255z"/>
	<polygon style="fill:#858585;" points="792.164,792.373 755.237,792.373 675.51,847.763 677.188,866.226 677.188,871.262 	"/>
</g>
<g>
	<g>
		<path style="fill:#6F4C22;" d="M296.491,747.543c21.299,3.931,42.005,8.964,62.665,15.536c20.7,6.587,41.231,13.82,61.62,21.315
			c18.726,6.883,35.102,18.878,52.488,28.412c8.256,4.527,16.862,8.472,25.933,11.056c8.197,2.334,18.874,4.351,27.157,1.672
			c1.475-0.477,1.129-2.49-0.354-2.614c-4.477-0.374-8.974,0.115-13.479-0.238c-4.977-0.392-9.874-1.533-14.645-2.962
			c-9.554-2.859-18.489-7.527-27.135-12.42c-16.878-9.552-32.956-20.651-51.367-27.157c-20.163-7.125-40.252-14.464-60.678-20.813
			c-19.962-6.204-40.918-12.671-61.832-14.535C295.293,744.653,294.944,747.258,296.491,747.543L296.491,747.543z"/>
	</g>
	<g>
		<path style="fill:#6F4C22;" d="M296.681,726.713c9.163,3.788,19.501,5.177,29.081,7.689c9.718,2.55,19.378,5.331,28.981,8.287
			c19.999,6.158,39.866,13.033,59.445,20.421c18.321,6.913,36.407,14.467,54.769,21.259c17.358,6.421,36.599,11.251,54.956,6.2
			c2.028-0.558,1.175-3.641-0.865-3.142c-19.335,4.721-38.122,1.723-56.533-5.241c-8.731-3.303-16.777-7.919-25.417-11.391
			c-9.718-3.905-19.463-7.743-29.245-11.489c-19.085-7.308-38.197-14.311-57.732-20.344c-9.601-2.965-19.269-5.693-29.011-8.155
			c-9.118-2.306-18.776-5.404-28.247-5.447C296.028,725.357,296.003,726.433,296.681,726.713L296.681,726.713z"/>
	</g>
	<g>
		<path style="fill:#6F4C22;" d="M294.345,701.351c21.025,1.863,38.821,12.562,58.804,18.066
			c12.132,3.341,24.297,6.195,36.637,8.678c12.362,2.488,24.894,4.68,36.892,8.625c16.387,5.389,30.188,16.706,45.172,24.891
			c15.316,8.367,31.562,11.67,48.811,7.974c2.061-0.442,1.182-3.552-0.865-3.143c-18.239,3.648-34.669-2.473-50.189-11.744
			c-6.852-4.094-13.529-8.474-20.453-12.447c-7.964-4.57-15.946-7.338-24.883-9.348c-23.926-5.38-48.051-9.85-71.706-16.343
			c-19.554-5.366-37.27-17.537-58.219-16.173C293.719,700.428,293.728,701.296,294.345,701.351L294.345,701.351z"/>
	</g>
	<g>
		<path style="fill:#6F4C22;" d="M286.455,673.746c3.392,2.456,7.466,3.617,11.376,5.014c4.921,1.757,9.843,3.517,14.768,5.267
			c9.835,3.496,19.669,6.992,29.555,10.344c9.857,3.344,19.777,6.504,29.794,9.335c10.206,2.885,20.44,4.71,30.87,6.544
			c16.778,2.95,33.071,7.165,49.168,12.748c9.153,3.175,17.802,7.116,27.191,9.694c4.675,1.284,9.387,2.436,14.072,3.688
			c4.102,1.096,8.117,2.65,12.289,3.411c1.309,0.238,2.107-1.433,0.919-2.182c-6.777-4.273-16.14-5.321-23.81-7.285
			c-9.397-2.406-18.024-6.002-27.09-9.295c-16.527-6.002-33.271-10.588-50.551-13.816c-9.868-1.845-19.644-3.476-29.344-6.106
			c-10.49-2.846-20.846-6.178-31.147-9.64c-9.909-3.33-19.755-6.847-29.603-10.353c-4.943-1.761-9.885-3.522-14.851-5.219
			c-4.313-1.473-8.664-3.309-13.27-3.389C286.078,672.494,285.951,673.382,286.455,673.746L286.455,673.746z"/>
	</g>
	<g>
		<path style="fill:#6F4C22;" d="M283.657,648.608c13.13,14.688,30.624,20.048,49.84,20.715c19.101,0.662,38.785-2.451,57.369,3.385
			c20.253,6.358,35.544,22.485,53.821,32.591c18.354,10.147,40.751,10.238,61.168,12.33c1.865,0.191,2.238-2.848,0.438-3.245
			c-9.72-2.146-19.918-2.337-29.788-3.511c-11.181-1.33-21.272-3.862-31.168-9.34c-17.556-9.719-31.955-24.205-51.022-31.271
			c-17.429-6.458-36.759-4.12-54.921-3.973c-9.2,0.074-18.438-0.458-27.375-2.778c-10.417-2.705-19.588-8.549-27.13-16.135
			C284.091,646.571,282.912,647.775,283.657,648.608L283.657,648.608z"/>
	</g>
	<g>
		<path style="fill:#6F4C22;" d="M282.826,618.622c22.037,30.534,64.576,26.845,97.746,31.391
			c21.32,2.922,40.527,11.626,59.944,20.497c20.411,9.325,42.438,19.596,65.34,19.582c2.34-0.002,2.334-3.583,0-3.626
			c-44.024-0.827-79.371-32.918-122.177-39.591c-32.481-5.065-75.925-0.095-97.958-29.945
			C284.455,615.218,281.555,616.859,282.826,618.622L282.826,618.622z"/>
	</g>
	<g>
		<path style="fill:#6F4C22;" d="M544.418,506.508c-9.668,23.194-6.771,47.25-0.389,70.869c3.131,11.586,6.955,22.971,9.236,34.769
			c2.6,13.449,4.154,27.087,5.237,40.735c1.792,22.588,2.106,45.251,4.571,67.784c1.842,16.833,4.08,33.64,6.783,50.355
			c3.562,22.027,8.184,43.997,14.909,65.291c5.483,17.364,12.637,36.354,25.562,49.65c1.647,1.695,4.075-0.813,2.563-2.563
			c-10.509-12.167-17.211-26.881-22.514-41.931c-6.252-17.747-10.388-36.17-13.786-54.651c-3.302-17.954-5.849-36.03-8.01-54.154
			c-2.36-19.772-3.796-39.485-5.007-59.364c-1.713-28.149-4.298-56.064-12.176-83.236c-3.812-13.149-7.722-26.32-9.301-39.965
			c-1.688-14.579,0.121-29.075,5.769-42.637C548.757,505.33,545.292,504.41,544.418,506.508L544.418,506.508z"/>
	</g>
	<g>
		<path style="fill:#6F4C22;" d="M572.315,493.502c-7.898,12.669-10.215,27.704-10.523,42.397
			c-0.377,18.013,2.416,36.061,5.768,53.705c6.778,35.68,17.958,70.9,21.671,107.106c1.542,15.032,1.369,30.265,2.37,45.343
			c1.055,15.913,2.805,31.874,6.779,47.348c3.666,14.275,9.034,28.275,18.162,40.003c9.307,11.956,22.119,20.58,36.644,24.862
			c2.727,0.804,5.51,1.414,8.301,1.946c2.291,0.438,3.256-3.086,0.964-3.496c-16.268-2.907-30.866-9.913-41.869-22.42
			c-10.165-11.553-16.231-26.753-19.694-41.586c-3.721-15.94-5.333-32.27-6.255-48.586c-0.849-15.021-0.565-30.175-2.062-45.149
			c-3.472-34.773-14.848-68.515-21.395-102.76c-3.355-17.552-5.981-35.376-5.961-53.283c0.017-14.964,2.16-30.699,10.15-43.647
			C576.567,493.34,573.518,491.574,572.315,493.502L572.315,493.502z"/>
	</g>
	<g>
		<path style="fill:#6F4C22;" d="M680.505,838.448c-8.019-7.578-16.39-14.172-23.093-23.081
			c-6.513-8.656-11.523-18.406-15.304-28.533c-6.043-16.188-7.566-32.983-9.12-50.021c-2.614-28.645-5.28-58.969,1.732-87.192
			c2.9-11.673,8.311-24.037,19.463-29.903c11.097-5.836,24.522-3.829,33.838,4.209c10.324,8.908,16.017,22.621,20.119,35.283
			c4.497,13.88,7.475,28.261,8.982,42.772c1.865,17.94,0.235,35.665-0.331,53.629c-0.337,10.717-0.214,21.572,1.896,32.121
			c0.878,4.386,2.303,8.632,4.414,12.579c0.979,1.831,2.194,3.496,3.618,5.002c0.738,0.781,1.575,1.462,2.402,2.143
			c0.205,0.169,2.034-1.205,0.672-0.757c-0.834,0.273-1.307,1.441-0.553,2.094c0.736,0.641,1.703,1.053,2.548,1.517
			c1.553,0.854,2.931-1.627,1.367-2.337c-0.745-0.34-1.724-0.646-2.396-1.147c-0.101,0.764-0.2,1.527-0.3,2.291
			c0.54-0.225,2.131-0.863,1.28-2.176c-1.847-2.848-4.362-5.087-6.021-8.16c-4.059-7.523-5.056-16.671-5.575-25.052
			c-1.104-17.788,1.413-35.507,1.411-53.28c-0.002-26.444-4.408-55.072-15.765-79.085c-5.18-10.95-12.904-21.935-24.298-26.998
			c-10.689-4.75-24.26-3.147-33.782,3.57c-10.154,7.164-15.094,19.543-17.957,31.188c-3.59,14.594-4.205,29.915-4.062,44.88
			c0.201,21.289,1.83,43.121,4.77,64.223c2.266,16.277,7.144,32.056,15.018,46.508c7.457,13.689,19.011,29.043,33.468,35.732
			C680.205,841.049,681.632,839.514,680.505,838.448L680.505,838.448z"/>
	</g>
	<g>
		<path style="fill:#6F4C22;" d="M695.788,831.505c-3.549-9.799-9.001-18.963-13.006-28.614
			c-5.134-12.374-9.37-25.112-12.715-38.083c-5.892-22.843-10.671-52.244,3.703-73.001c-1.152,0-2.305,0-3.457,0
			c12.284,20.873,9.326,45.351,12.591,68.422c1.531,10.821,5.208,20.146,10.733,29.503c5.476,9.273,11.532,18.379,12.026,29.483
			c0.093,2.09,3.251,2.11,3.259,0c0.04-9.983-4.555-18.617-9.488-27.015c-2.581-4.393-5.183-8.756-7.399-13.349
			c-2.773-5.75-4.165-11.925-5.202-18.188c-3.984-24.083-0.329-48.856-13.062-70.876c-0.802-1.386-2.616-1.194-3.457,0
			c-14.598,20.743-10.913,49.727-5.451,72.895c3.257,13.816,8.026,27.267,13.531,40.338c4.184,9.933,8.475,21.287,15.516,29.58
			C694.628,833.446,696.166,832.549,695.788,831.505L695.788,831.505z"/>
	</g>
	<g>
		<path style="fill:#6F4C22;" d="M602.817,481.805c-0.791,11.167-4.178,22.544-9.07,32.595c-0.129,0.266,0.22,0.587,0.433,0.334
			c7.73-9.206,11.588-20.952,11.116-32.929C605.233,480.195,602.93,480.22,602.817,481.805L602.817,481.805z"/>
	</g>
	<g>
		<path style="fill:#6F4C22;" d="M593.21,521.879c-8.906,25.659-10.622,53.495,0.323,78.888c1.326,3.077,3.024,5.938,4.728,8.816
			c0.807,1.361,1.607,4.354,3.539,4.371c0.913,0.008,2.57,0.74,3.319-0.151c1.441-1.713,2.692-3.599,3.907-5.477
			c3.079-4.761,6.034-9.607,8.815-14.548c2.197-3.9,4.614-8.365,4.875-12.917c0.059-1.011-1.257-1.179-1.753-0.476
			c-4.932,6.989-8.465,15.075-12.81,22.444c-1.065,1.809-2.166,3.597-3.253,5.392c-1.258,2.074-1.035,3.092-3.102,3.304
			c-0.141,0.015-3.107-6.319-3.433-7.013c-1.548-3.309-2.948-6.691-4.185-10.128c-8.336-23.171-6.61-48.819,0.575-72.078
			C595.067,521.308,593.546,520.91,593.21,521.879L593.21,521.879z"/>
	</g>
	<g>
		<path style="fill:#6F4C22;" d="M676.193,565.142c1.587,7.169,8.174,14.03,12.587,19.73c5.32,6.873,10.954,13.5,16.439,20.239
			c11.836,14.542,22.903,29.812,29.426,47.55c12.216,33.221,1.944,68.205,6.114,102.378c0.8,6.556,2.263,13.095,4.987,19.134
			c2.226,4.932,6.05,10.752,11.906,11.074c1.242,0.068,1.534-1.395,0.908-2.193c-1.756-2.239-3.955-3.833-5.887-5.92
			c-2.329-2.517-3.927-5.705-5.165-8.871c-2.815-7.197-3.468-15.273-3.867-22.919c-0.875-16.708,0.818-33.416,1.07-50.117
			c0.267-17.736-2.57-35.066-9.743-51.356c-7.252-16.472-18.507-30.806-29.922-44.562c-4.859-5.857-9.776-11.666-14.471-17.658
			c-2.382-3.039-4.667-6.152-6.86-9.33c-1.935-2.804-3.462-5.758-5.989-8.071C677.038,563.618,675.993,564.237,676.193,565.142
			L676.193,565.142z"/>
	</g>
	<g>
		<path style="fill:#6F4C22;" d="M640.06,464.179c-1.175,8.944,0.011,17.765,4.177,25.814c1.94,3.747,4.719,7.06,7.794,9.919
			c2.618,2.434,6.236,5.686,9.94,5.794c0.864,0.025,1.644-1.104,1.07-1.864c-2.098-2.777-5.786-4.225-8.425-6.516
			c-2.974-2.581-5.335-5.742-7.256-9.158c-4.087-7.27-4.808-15.86-3.768-23.989C643.883,461.92,640.351,461.955,640.06,464.179
			L640.06,464.179z"/>
	</g>
	<g>
		<path style="fill:#6F4C22;" d="M625.072,517.056c0.724-8.915,1.692-17.97,2.733-26.89c0.785-6.73,3.02-14.126,2.488-20.924
			c-0.069-0.881-1.329-1.41-1.797-0.487c-2.804,5.552-2.953,12.786-3.768,18.852c-0.653,4.88-1.174,9.773-1.567,14.68
			c-0.41,5.098-0.193,9.73,0.166,14.769C623.408,518.183,624.981,518.176,625.072,517.056L625.072,517.056z"/>
	</g>
	<g>
		<path style="fill:#8C7545;" d="M797.328,761.3c0.451-20.545,3.047-40.768,10.383-60.058c6.625-17.42,16.44-33.512,25.107-49.948
			c10.935-20.736,21.783-41.292,27.286-64.233c5.502-22.936,6.646-46.785,6.965-70.283c0.052-3.825,0.058-7.639-0.329-11.447
			c-0.207-2.039-2.957-2.037-3.166,0c-1.217,11.848-0.519,23.969-1.151,35.875c-0.649,12.229-2.022,24.416-4.339,36.445
			c-2.304,11.961-5.764,23.698-10.601,34.883c-2.299,5.315-4.989,10.451-7.919,15.442c-3.08,5.246-5.543,10.927-8.328,16.341
			c-8.621,16.764-18.441,32.979-25.807,50.362c-7.429,17.537-11.015,35.908-11.853,54.896c-0.172,3.903-0.123,7.82-0.059,11.725
			C793.559,763.757,797.273,763.755,797.328,761.3L797.328,761.3z"/>
	</g>
	<g>
		<path style="fill:#6F4C22;" d="M706.436,551.256c14.71,8.04,23.762,24.634,30.983,39.09c8.129,16.271,14.193,33.461,19.283,50.894
			c1.895,6.491,2.977,12.666,3.404,19.423c0.425,6.704,0.606,13.572,2.425,20.08c1.375,4.924,4.371,9.451,9.636,10.569
			c4.747,1.009,9.91-0.45,12.843-4.313c3.664-4.829,6.062-10.676,8.442-16.203c3.104-7.21,5.898-14.55,8.676-21.891
			c6.068-16.045,13.221-31.668,18.073-48.144c7.13-24.21,10.45-49.336,14.254-74.222c1.728-11.305,3.249-22.743,6.329-33.774
			c2.962-10.617,6.655-21.009,8.809-31.841c1.351-6.797,2.407-14.457,0.805-21.29c-1.563-6.668-4.879-12.828-8.668-18.474
			c-7.846-11.69-17.826-21.582-21.145-35.729c-0.764-3.254-5.776-1.874-5.001,1.379c4.626,19.398,21.652,31.324,28.594,49.48
			c3.979,10.406,1.312,22.04-1.366,32.452c-2.659,10.331-6.364,20.378-8.612,30.815c-5.226,24.269-7.238,49.209-12.062,73.575
			c-2.453,12.391-5.567,24.643-9.582,36.622c-2.742,8.178-6.348,15.959-9.503,23.964c-5.508,13.98-10.201,28.315-16.652,41.907
			c-1.842,3.879-3.955,9.798-8.427,11.021c-6.744,1.843-10.004-2.519-11.523-8.487c-1.721-6.757-1.619-13.964-2.147-20.878
			c-0.503-6.567-2.013-12.614-3.891-18.907c-5.104-17.102-11.727-33.989-19.688-49.96c-7.317-14.68-17.16-32.581-32.574-40.091
			C706.202,547.374,704.497,550.196,706.436,551.256L706.436,551.256z"/>
	</g>
	<g>
		<path style="fill:#6F4C22;" d="M685.469,446.089c-2.4,7.688-3.126,15.52-2.073,23.511c0.835,6.338,2.985,16.113,8.076,20.473
			c0.783,0.671,1.886,0.031,1.688-0.982c-0.622-3.181-2.537-6.045-3.718-9.052c-1.199-3.059-1.989-6.261-2.591-9.484
			c-1.468-7.867-0.455-15.983,1.981-23.538C689.523,444.872,686.137,443.947,685.469,446.089L685.469,446.089z"/>
	</g>
	<g>
		<path style="fill:#6F4C22;" d="M718.269,425.964c-1.237,9.028-1.384,18.09,0.741,26.998c0.971,4.074,2.655,7.972,4.799,11.558
			c1.854,3.101,4.692,7.327,8.408,8.143c0.891,0.196,1.416-0.646,1.089-1.415c-1.352-3.177-4.604-5.556-6.506-8.476
			c-2.13-3.273-3.473-6.973-4.484-10.721c-2.24-8.3-1.888-17.203-0.757-25.642C721.809,424.542,718.524,424.1,718.269,425.964
			L718.269,425.964z"/>
	</g>
	<g>
		<path style="fill:#6F4C22;" d="M756.276,532.164c-1.712,19.179,10.454,36.304,16.8,53.484c0.543,1.47,1.943,2.023,3.356,1.366
			c9.404-4.375,12.685-19.06,14.985-27.989c3.728-14.468,5.662-29.403,7.418-44.218c0.784-6.618,1.704-13.271,1.938-19.935
			c0.361-10.35-1.012-20.721-3.291-30.801c-4.923-21.776-14.32-42.744-22.42-63.478c-1.095-2.804-5.58-1.706-4.602,1.269
			c6.416,19.542,15.341,38.148,20.729,58.051c2.698,9.964,4.253,20.157,4.427,30.481c0.117,6.965-0.805,13.861-1.56,20.77
			c-1.562,14.292-3.396,28.591-6.529,42.633c-1.413,6.333-3.105,12.709-5.676,18.681c-1.716,3.986-3.901,8.269-7.724,10.589
			c1.041,0.274,2.084,0.547,3.126,0.82c-3.872-7.734-7.767-15.493-11.257-23.408c-4.074-9.242-5.834-18.346-6.966-28.315
			C758.831,530.409,756.435,530.376,756.276,532.164L756.276,532.164z"/>
	</g>
	<g>
		<path style="fill:#6F4C22;" d="M843.852,732.765c0.002-7.331-0.294-14.808,1.252-22.06c1.336-6.261,3.938-12.098,7.07-17.647
			c3.136-5.559,6.869-10.77,10.516-15.998c1.835-2.63,3.656-5.27,5.455-7.925c1.674-2.468,4.55-5.416,4.219-8.545
			c-0.082-0.771-0.806-1.632-1.686-1.284c-2.849,1.126-3.959,4.149-5.565,6.627c-1.971,3.036-4.052,5.997-6.138,8.956
			c-4.096,5.813-8.213,11.615-11.669,17.842c-6.762,12.178-10.104,26.892-6.113,40.393
			C841.624,734.585,843.852,734.31,843.852,732.765L843.852,732.765z"/>
	</g>
</g>
<g>
	<g>
		<path style="fill:#827377;" d="M795.885,778.638c8.211-3.082,15.503-8.422,22.868-13.102c5.683-3.61,12.701-7.144,16.799-12.622
			c0.937-1.254-0.599-2.782-1.892-2.462c-6.44,1.596-12.38,6.463-17.852,10.046c-7.312,4.788-15.305,9.315-21.33,15.725
			C793.556,777.202,794.453,779.176,795.885,778.638L795.885,778.638z"/>
	</g>
	<g>
		<path style="fill:#827377;" d="M629.302,891.929c6.984-3.206,13.397-8.711,19.833-12.918c3.419-2.236,6.855-4.441,10.266-6.688
			c3.046-2.009,6.543-3.731,7.854-7.29c0.448-1.219-0.69-2.359-1.836-2.412c-3.533-0.16-6.41,2.33-9.237,4.193
			c-3.843,2.531-7.636,5.121-11.39,7.779c-6.072,4.301-13.398,8.958-17.687,15.139C626.093,891.188,627.986,892.533,629.302,891.929
			L629.302,891.929z"/>
	</g>
</g>
<g>
	<g>
		<path style="fill:#FFFFFF;" d="M847.555,367.293c-0.983,12.151,0.191,24.552,0.681,36.716c0.493,12.259,0.986,24.518,1.473,36.777
			c1.017,25.613,2.002,51.228,2.929,76.846c1.702,47.06,4.489,94.021,7.485,141.014c0.6,9.42,1.191,18.84,1.77,28.262
			c0.561,9.155,0.255,19.704,3.716,28.279c0.612,1.515,2.861,1.797,3.364,0c1.688-6.041,1.167-12.368,0.889-18.586
			c-0.312-6.948-0.693-13.888-1.117-20.83c-0.781-12.751-1.587-25.5-2.391-38.25c-1.453-23.057-2.951-46.113-4.206-69.183
			c-2.688-49.377-4.532-98.809-6.969-148.2c-0.87-17.653-0.49-35.965-3.476-53.406C851.275,364.236,847.734,365.074,847.555,367.293
			L847.555,367.293z"/>
	</g>
	<g>
		<path style="fill:#FFFFFF;" d="M817.727,368.997c4.721,0.659,9.431,0.566,14.187,0.616c4.381,0.046,9.466,1.119,12.936-2.103
			c0.812-0.753,0.812-2.2,0-2.953c-3.468-3.217-8.575-2.185-12.936-1.892c-5.052,0.34-9.999,0.888-14.608,3.101
			C816.003,366.393,816.221,368.786,817.727,368.997L817.727,368.997z"/>
	</g>
	<g>
		<path style="fill:#FFFFFF;" d="M815.351,327.011c-0.398,5.691-0.244,11.425-0.27,17.129c-0.023,5.306-1,11.605,1.967,16.273
			c0.546,0.857,1.752,0.857,2.298,0c2.739-4.312,1.994-9.833,1.973-14.743c-0.027-6.21,0.158-12.462-0.276-18.658
			C820.785,323.345,815.608,323.345,815.351,327.011L815.351,327.011z"/>
	</g>
	<g>
		<path style="fill:#FFFFFF;" d="M800.445,299.766c-2.386,4.701-3.104,9.451-3.208,14.703c-0.059,2.987,0.036,5.977,0.105,8.962
			c0.066,2.907-0.4,5.995,1.407,8.422c0.994,1.336,2.656,1.359,3.646,0c2.643-3.624,1.032-10.15,0.924-14.409
			c-0.142-5.592-0.123-11.283,0.119-16.867C803.507,299.007,801.167,298.343,800.445,299.766L800.445,299.766z"/>
	</g>
	<g>
		<path style="fill:#FFFFFF;" d="M746.198,287.574c-1.278,4.832-0.683,9.597-0.271,14.59c0.378,4.574-0.159,12.298,3.271,15.799
			c0.638,0.651,1.827,0.525,2.271-0.293c2.277-4.195,0.14-10.981-0.302-15.506c-0.485-4.964-0.621-9.822-1.96-14.59
			C748.793,286.099,746.597,286.067,746.198,287.574L746.198,287.574z"/>
	</g>
	<g>
		<path style="fill:#FFFFFF;" d="M410.73,411.481c11.372-2.941,22.497-7.148,33.618-10.896
			c22.435-7.561,44.634-15.871,66.911-23.879c53.907-19.377,107.808-38.777,161.861-57.741
			c17.147-6.017,34.309-12.001,51.545-17.758c5.628-1.881,11.275-3.701,16.885-5.635c2.999-1.033,6.273-3.354,9.007-3.85
			c1.601-0.29,0.92-2.723-0.671-2.435c0.691-0.125-0.814,0.022-1.383,0.076c-0.918,0.087-1.842,0.201-2.659,0.265
			c-2.66,0.205-5.101,0.775-7.657,1.534c-7.425,2.202-14.753,4.703-22.084,7.195c-22.373,7.604-44.649,15.492-66.915,23.402
			c-53.998,19.185-107.872,38.719-161.763,58.202c-25.904,9.365-51.645,19.161-77.463,28.73
			C408.24,409.332,408.897,411.956,410.73,411.481L410.73,411.481z"/>
	</g>
	<g>
		<path style="fill:#FFFFFF;" d="M442.326,436.136c13.559-7.193,28.606-12.017,42.974-17.287c24.7-9.06,49.437-18.022,74.219-26.856
			c57.144-20.371,114.565-39.953,171.823-60.002c17.696-6.195,35.412-12.351,52.991-18.873c10.112-3.752,19.651-8.341,29.477-12.689
			c1.513-0.67,0.204-2.885-1.297-2.22c-4.867,2.153-10.312,3.165-15.338,4.877c-8.535,2.907-17.019,5.967-25.524,8.955
			c-24.301,8.536-48.539,17.254-72.837,25.799c-57.407,20.186-114.81,40.436-171.941,61.391
			c-18.151,6.657-36.206,13.567-54.09,20.913c-10.587,4.349-21.472,8.641-31.477,14.249
			C440.168,435.03,441.178,436.744,442.326,436.136L442.326,436.136z"/>
	</g>
	<g>
		<path style="fill:#FFFFFF;" d="M469.674,459.778c36.525-12.258,72.64-25.555,108.814-38.82
			c55.541-20.366,111.147-40.552,166.635-61.067c16.824-6.221,33.634-12.48,50.411-18.828c5.706-2.159,11.418-4.305,17.078-6.58
			c1.999-0.805,3.997-1.614,5.99-2.434c0.812-0.334,1.662-0.782,2.523-1.265c0.31-0.174,0.618-0.349,0.928-0.523
			c0.786-0.446,0.561-0.357,0.39-0.287c2.073-0.861,1.165-4.282-0.939-3.407c-4.059,1.688-9.666,3.212-14.214,4.887
			c-8.16,3.005-16.271,6.152-24.415,9.197c-23.603,8.821-47.217,17.609-70.84,26.375c-55.442,20.573-110.884,41.151-166.324,61.73
			c-25.661,9.525-51.518,18.693-76.515,29.89C468.554,458.935,469.014,460,469.674,459.778L469.674,459.778z"/>
	</g>
	<g>
		<path style="fill:#FFFFFF;" d="M474.197,121.162c3.749,1.973,7.094,5.161,10.351,7.819c6.825,5.57,13.602,11.194,20.441,16.747
			c20.234,16.427,40.386,32.956,60.524,49.499c39.309,32.291,78.035,65.751,119.236,95.638c4.746,3.442,9.472,6.974,14.931,9.139
			c0.854,0.338,1.221-1.038,0.379-1.372c-3.327-1.319-7.604-5.449-10.752-7.819c-7.172-5.4-14.165-11.043-21.142-16.692
			c-20.371-16.492-40.813-32.893-61.107-49.48c-22.42-18.324-44.778-36.725-67.204-55.043c-16.81-13.73-33.48-27.778-51.097-40.474
			c-4.382-3.158-8.978-7.149-14.03-9.219C474,119.605,473.516,120.804,474.197,121.162L474.197,121.162z"/>
	</g>
	<g>
		<path style="fill:#FFFFFF;" d="M637.2,578.655c4.146-0.6,8.278-0.882,12.329-2.002c4.576-1.264,9.096-2.786,13.51-4.532
			c10.126-4.005,19.99-8.722,29.619-13.797c9.998-5.272,19.781-10.95,29.42-16.852c4.25-2.602,8.46-5.269,12.644-7.978
			c3.78-2.448,8.006-4.861,10.883-8.404c1.064-1.31,0.124-3.686-1.787-3.068c-3.995,1.291-7.484,3.852-10.963,6.131
			c-4.137,2.711-8.317,5.357-12.521,7.963c-9.223,5.717-18.612,11.166-28.16,16.322c-9.452,5.106-19.055,9.942-28.93,14.179
			c-4.573,1.963-9.2,3.827-13.893,5.483c-4.216,1.488-8.394,3.362-12.784,4.253C635.031,576.665,635.718,578.869,637.2,578.655
			L637.2,578.655z"/>
	</g>
	<g>
		<path style="fill:#FFFFFF;" d="M525.143,508.236c9.614-4.512,18.797-9.847,28.382-14.425c10.394-4.965,21.05-9.386,31.761-13.619
			c21.397-8.458,43.147-16.002,64.442-24.727c22.405-9.18,43.721-20.696,65.244-31.737c23.355-11.981,46.771-23.859,70.701-34.663
			c6.941-3.134,13.93-6.172,20.959-9.106c6.504-2.716,13.342-4.965,19.273-8.823c2.051-1.334,0.655-4.06-1.573-3.733
			c-6.274,0.918-12.081,3.481-17.918,5.872c-6.093,2.494-12.145,5.092-18.158,7.774c-12.002,5.353-23.852,11.042-35.627,16.875
			c-23.426,11.603-46.482,23.928-69.758,35.825c-20.786,10.626-42.113,19.445-63.946,27.679
			c-21.281,8.025-42.732,15.765-63.355,25.402c-11.287,5.274-22.805,10.803-32.15,19.172
			C522.138,507.149,523.765,508.884,525.143,508.236L525.143,508.236z"/>
	</g>
	<g>
		<path style="fill:#FFFFFF;" d="M192.41,404.62c-0.005,12.515,2.126,24.876,4.167,37.204c2.124,12.827,4.468,25.617,6.899,38.39
			c2.439,12.814,5.032,25.596,7.668,38.371c2.727,13.215,5.355,26.405,10.025,39.089c0.434,1.177,2.358,1.085,2.299-0.312
			c-0.532-12.614-3.011-24.928-5.545-37.278c-2.619-12.771-5.244-25.543-7.838-38.319c-2.586-12.739-5.062-25.501-7.366-38.296
			c-2.36-13.108-4.128-26.359-7.649-39.208C194.664,402.781,192.41,403.088,192.41,404.62L192.41,404.62z"/>
	</g>
	<g>
		<path style="fill:#FFFFFF;" d="M343.96,269.475c24.551-25.632,51.103-49.231,73.524-76.884
			c9.85-12.15,18.605-25.142,27.911-37.702c4.714-6.363,9.61-12.59,14.825-18.552c5.332-6.097,11.498-11.357,16.875-17.391
			c1.401-1.571-0.388-4.157-2.308-2.991c-6.301,3.825-11.402,9.402-16.328,14.814c-5.305,5.828-10.186,12.039-14.914,18.34
			c-9.686,12.909-18.56,26.411-28.529,39.11c-22.169,28.241-48.772,52.901-72.68,79.632
			C341.357,268.947,342.93,270.55,343.96,269.475L343.96,269.475z"/>
	</g>
</g>
<g>
	<g>
		<path style="fill:#FFFFFF;" d="M625.486,654.58c-2.447,8.962-2.878,17.919-3.286,27.189c-0.451,10.265-0.874,20.543-0.52,30.816
			c0.674,19.557,2.246,40.378,9.129,58.84c0.075,0.201,0.437,0.191,0.405-0.056c-2.447-19.122-5.85-37.918-6.615-57.24
			c-0.386-9.738-0.675-19.564-0.12-29.299c0.575-10.083,2.057-20.024,1.999-30.115C626.475,654.144,625.637,654.027,625.486,654.58
			L625.486,654.58z"/>
	</g>
	<g>
		<path style="fill:#FFFFFF;" d="M662.127,696.226c-7.171,10.292-8.238,23.182-7.059,35.385c1.022,10.596,3.297,23.348,9.094,32.449
			c0.237,0.372,0.949,0.264,0.898-0.243c-0.479-4.766-2.035-9.274-3.297-13.872c-1.525-5.56-2.667-11.223-3.284-16.955
			c-1.351-12.542,1.243-24.275,5.283-36.074C664.111,695.898,662.675,695.438,662.127,696.226L662.127,696.226z"/>
	</g>
	<g>
		<path style="fill:#FFFFFF;" d="M673.963,705.259c1.271,6.664,2.387,13.417,3.523,20.118c1.167,6.884,0.8,14.221,2.485,20.968
			c0.136,0.544,0.976,0.553,1.106,0c1.521-6.415,0.242-13.821-0.668-20.272c-1.036-7.351-2.903-14.137-5.074-21.192
			C675.062,703.994,673.793,704.365,673.963,705.259L673.963,705.259z"/>
	</g>
	<g>
		<path style="fill:#FFFFFF;" d="M702.896,653.955c4.808,14.532,8.146,28.997,10.007,44.19c1.849,15.095,1.199,30.388,0.525,45.529
			c-0.035,0.791,1.065,0.849,1.308,0.177c5.192-14.4,3.649-29.806,1.172-44.634c-2.564-15.348-7.277-30.759-12.436-45.422
			C703.345,653.438,702.774,653.587,702.896,653.955L702.896,653.955z"/>
	</g>
	<g>
		<path style="fill:#FFFFFF;" d="M713.817,618.902c5.498,6.821,9.814,14.503,13.574,22.388c3.88,8.136,5.533,16.967,7.195,25.747
			c0.853,4.501,1.864,8.977,2.401,13.533c0.533,4.526,0.04,9.393,0.096,13.956c0.051,4.191-0.026,8.379-0.071,12.57
			c-0.044,4.143-0.449,8.427,0.733,12.429c0.2,0.679,1.171,0.679,1.371,0c1.188-4.022,0.722-8.269,0.657-12.429
			c-0.072-4.61-0.393-9.236-0.688-13.838c-0.3-4.677-1.279-9.291-1.57-13.953c-0.29-4.671-0.413-9.42-1.091-14.071
			c-2.499-17.145-8.947-35.132-22.055-46.883C713.988,618.01,713.506,618.517,713.817,618.902L713.817,618.902z"/>
	</g>
	<g>
		<path style="fill:#FFFFFF;" d="M748.126,618.731c2.069,8.482,4.083,17.067,5.677,25.653c0.901,4.86,1.471,9.771,1.952,14.688
			c0.411,4.194,0.217,8.52,1.359,12.599c0.171,0.61,1.073,0.619,1.239,0c2.09-7.765,0.047-17.255-1.247-25.064
			c-1.623-9.789-4.398-18.947-8.227-28.081C748.689,618.073,748.003,618.227,748.126,618.731L748.126,618.731z"/>
	</g>
	<g>
		<path style="fill:#FFFFFF;" d="M755.9,546.495c0.56,3.217,0.588,6.459,1.185,9.661c0.603,3.235,1.673,6.438,2.672,9.567
			c1.84,5.767,4.092,12.055,8.482,16.383c0.387,0.38,1.167,0.002,0.959-0.558c-2.085-5.604-4.966-10.85-6.954-16.509
			c-1.099-3.129-1.957-6.329-2.875-9.513c-0.895-3.107-2.344-5.973-3.157-9.116C756.158,546.206,755.865,546.295,755.9,546.495
			L755.9,546.495z"/>
	</g>
	<g>
		<path style="fill:#FFFFFF;" d="M782.448,562.501c2.253-5.388,4.376-10.225,5.749-15.967c1.387-5.797,2.299-11.697,3.064-17.603
			c1.607-12.4,2.583-25.194,2.549-37.704c-0.033-12.86-2.24-26.602-6.18-38.838c-1.74-5.408-4.493-10.482-6.767-15.672
			c-1.232-2.814-2.286-5.645-3.072-8.613c-0.705-2.657-0.407-5.52-1.701-7.966c-0.31-0.588-1.137-0.513-1.465,0
			c-2.296,3.577-0.334,9.131,0.829,12.848c1.712,5.469,4.494,10.568,6.82,15.784c5.325,11.944,7.317,26.457,8.065,39.406
			c0.692,11.974-0.427,24.424-1.458,36.356c-0.577,6.688-1.496,13.34-2.805,19.924c-1.159,5.835-2.357,12.275-4.382,17.839
			C781.521,562.776,782.26,562.953,782.448,562.501L782.448,562.501z"/>
	</g>
	<g>
		<path style="fill:#FFFFFF;" d="M797.753,641.623c3.247-6.264,6.632-12.045,8.347-19.005c1.856-7.536,4.769-14.794,6.794-22.265
			c4.073-15.028,6.53-30.463,8.969-45.823c2.377-14.972,4.506-29.949,7.429-44.828c1.503-7.653,3.167-15.294,5.035-22.866
			c0.937-3.791,1.982-7.553,3.089-11.296c1.005-3.404,1.332-6.731,2.037-10.177c0.221-1.079-0.788-1.789-1.753-1.348
			c-2.603,1.19-2.629,2.961-3.653,5.381c-1.419,3.357-2.368,6.852-3.345,10.368c-2.091,7.523-3.822,15.148-5.199,22.834
			c-2.707,15.108-4.59,30.402-6.567,45.621c-2.055,15.819-4.447,31.533-7.643,47.166c-1.571,7.684-3.174,15.119-5.648,22.581
			c-1.226,3.698-3.148,7.17-4.525,10.823c-1.517,4.025-2.789,8.247-4.516,12.161C796.266,641.718,797.351,642.398,797.753,641.623
			L797.753,641.623z"/>
	</g>
	<g>
		<path style="fill:#6F4C22;" d="M792.307,745.477c1.398-5.709,2.166-11.354,2.726-17.214c0.631-6.617,1.798-12.602,3.91-18.927
			c3.988-11.941,8.673-23.481,13.845-34.957c5.114-11.346,11.007-22.213,17.007-33.116c3.03-5.506,6.042-11.025,9.122-16.503
			c2.919-5.192,6.182-10.154,7.359-16.087c0.08-0.406-0.409-0.762-0.729-0.425c-4.065,4.284-6.653,9.747-9.156,15.035
			c-2.883,6.096-6.423,11.949-9.612,17.891c-6.075,11.316-12.091,22.758-17.607,34.356c-5.237,11.014-9.697,22.757-12.475,34.64
			c-2.726,11.659-6.974,23.237-5.275,35.307C791.485,745.938,792.205,745.892,792.307,745.477L792.307,745.477z"/>
	</g>
	<g>
		<path style="fill:#FFFFFF;" d="M579.572,655.901c0.943,5.982,1.461,11.967,2.525,17.942c1.316,7.38,2.552,14.786,3.507,22.223
			c1.714,13.351,2.112,26.798,4.148,40.092c0.021,0.131,0.246,0.132,0.266,0c1.965-13.44,0.033-27.06-1.807-40.444
			c-0.975-7.098-1.989-14.183-3.276-21.232c-1.176-6.446-3.05-12.446-4.877-18.716C579.966,655.447,579.523,655.587,579.572,655.901
			L579.572,655.901z"/>
	</g>
	<g>
		<path style="fill:#FFFFFF;" d="M555.811,638.769c-1.255,10.159-0.577,20.434,0.049,30.632c0.609,9.909,0,21.375,3.525,30.712
			c0.123,0.327,0.544,0.255,0.586-0.079c0.622-4.96-0.112-9.699-0.616-14.67c-0.537-5.315-0.887-10.626-1.115-15.963
			c-0.436-10.217-0.144-20.483-1.419-30.632C556.74,638.121,555.892,638.119,555.811,638.769L555.811,638.769z"/>
	</g>
	<g>
		<path style="fill:#FFFFFF;" d="M564.864,761.019c2.271,18.88,4.762,37.576,9.983,55.911c2.853,10.018,5.824,19.881,9.316,29.7
			c1.507,4.236,3.1,8.499,4.87,12.631c1.763,4.115,3.441,9.62,7.063,12.482c0.578,0.457,1.297,0.033,1.188-0.692
			c-0.622-4.168-3.677-8.139-5.558-11.855c-2.364-4.666-4.415-9.416-6.266-14.309c-3.481-9.205-6.053-19.028-8.055-28.662
			c-3.829-18.422-7.035-36.995-10.65-55.461C566.55,759.705,564.734,759.94,564.864,761.019L564.864,761.019z"/>
	</g>
	<g>
		<path style="fill:#FFFFFF;" d="M564.311,506.776c-8.754,15.407-8.256,35.342-6.561,52.475c0.927,9.353,2.578,18.626,4.479,27.823
			c1.754,8.482,3.128,18.435,7.4,26.073c0.388,0.692,1.438,0.366,1.454-0.394c0.16-7.907-2.751-16.227-4.459-23.89
			c-2.075-9.309-3.812-18.698-4.939-28.172c-1.066-8.961-1.462-18.025-0.966-27.038c0.491-8.937,2.508-17.809,4.431-26.524
			C565.261,506.633,564.577,506.31,564.311,506.776L564.311,506.776z"/>
	</g>
	<g>
		<path style="fill:#FFFFFF;" d="M591.122,516.118c-4.922,14.404-9.155,29.102-10.105,44.382c-0.44,7.057,0.146,14.136,1.724,21.023
			c1.28,5.589,3.629,14.058,8.488,17.537c0.384,0.275,1.064-0.087,1.001-0.574c-0.389-3.023-2.107-5.6-3.254-8.405
			c-1.255-3.07-2.253-6.218-3.054-9.435c-1.747-7.025-1.896-14.35-1.415-21.537c0.966-14.435,5.101-28.536,7.5-42.746
			C592.104,515.783,591.315,515.551,591.122,516.118L591.122,516.118z"/>
	</g>
	<g>
		<path style="fill:#FFFFFF;" d="M680.898,454.847c-0.721,2.161-1.774,4.172-2.404,6.361c-0.653,2.275-0.462,5.008-0.39,7.334
			c0.12,3.883,0.804,8.411,3.562,11.306c0.452,0.475,1.31,0.121,1.293-0.535c-0.092-3.622-1.426-7.143-1.78-10.771
			c-0.396-4.04-0.467-9.576,0.648-13.439C682.002,454.501,681.094,454.262,680.898,454.847L680.898,454.847z"/>
	</g>
	<g>
		<path style="fill:#FFFFFF;" d="M715.178,435.325c-2.307,4.292-1.332,9.678-0.538,14.288c0.851,4.943,2.779,11.601,5.732,15.688
			c0.335,0.463,1.041,0.189,0.923-0.39c-0.499-2.45-1.558-4.772-2.265-7.181c-0.821-2.795-0.975-5.662-1.274-8.538
			c-0.467-4.473,0.238-9.445-1.319-13.703C716.244,434.964,715.481,434.76,715.178,435.325L715.178,435.325z"/>
	</g>
	<g>
		<path style="fill:#FFFFFF;" d="M813.252,390.353c0.975,9.983,8.842,18.907,13.932,27.163c2.986,4.843,5.761,10.103,7.906,15.374
			c1.009,2.479,1.684,5.047,2.328,7.638c0.721,2.898,0.573,6.028,1.699,8.81c0.271,0.67,1.225,0.959,1.636,0.214
			c2.344-4.253,0.811-10.152-0.577-14.501c-1.705-5.345-4.419-10.499-7.604-15.096c-3.428-4.945-6.739-9.984-9.931-15.089
			c-3.007-4.805-5.248-9.978-8.062-14.872C814.244,389.414,813.181,389.626,813.252,390.353L813.252,390.353z"/>
	</g>
	<g>
		<path style="fill:#FFFFFF;" d="M593.98,787.315c-0.899,6.905,1.603,14.265,4.03,20.63c2.686,7.038,6.457,13.587,10.891,19.661
			c4.408,6.04,9.637,11.47,15.493,16.113c4.733,3.754,11.972,9.492,18.363,9.043c0.671-0.048,1.156-0.891,0.585-1.41
			c-2.063-1.874-4.566-2.762-7.028-3.992c-3.141-1.57-6.079-3.521-8.903-5.6c-5.974-4.396-11.117-9.964-15.527-15.898
			c-4.291-5.774-7.812-12.185-10.548-18.833c-2.671-6.491-3.582-13.281-5.508-19.964C595.513,785.97,594.11,786.316,593.98,787.315
			L593.98,787.315z"/>
	</g>
	<g>
		<path style="fill:#FFFFFF;" d="M697.021,799.144c1.494,3.563,2.677,7.371,3.812,11.067c1.025,3.34,1.163,6.97,2.734,10.101
			c0.201,0.402,0.87,0.311,0.964-0.126c1.55-7.157-3.584-15.322-6.965-21.272C697.403,798.627,696.889,798.827,697.021,799.144
			L697.021,799.144z"/>
	</g>
	<g>
		<path style="fill:#FFFFFF;" d="M837.917,720.735c0.381-6.736,2.025-13.781,4.249-20.132c2.325-6.636,7.112-11.872,9.558-18.321
			c0.182-0.48-0.438-0.897-0.843-0.647c-5.57,3.452-8.984,10.904-11.312,16.804c-2.947,7.469-3.973,14.357-3.12,22.297
			C836.549,721.664,837.863,721.696,837.917,720.735L837.917,720.735z"/>
	</g>
</g>
<g>
	<path style="fill:#231F20;" d="M877.311,713.292l-17.837-352.927l-32.595-2.508l-0.002-37.939l-3.915,1.382
		c-1.44,0.509-6.214,2.194-13.633,4.82l1.358-32.589l-4.022,1.312c-0.335,0.109-26.995,8.851-47.806,15.74l-2.801-28.024
		l-50.357,14.637L500.726,132.464l-27.133-21.413L299.677,315.215l-83.608,19.269l9.131,33.013
		c-11.833,3.417-39.773,14.161-69.137,25.456l-2.659,1.023l0.496,2.436c13.681,67.164,66.175,360.767,66.704,363.725l0.296,1.654
		l36.916,13.672l30.074-18.796c36.502,17.041,227.43,89.927,243.197,95.939l5.709,40.092l48.381,17.471l0.617-0.415l37.136,0.948
		l57.768-36.761l-4.017-25.438l77.103-51.961h34.512l57.732-36.739l-3.629-22.979l33.539-22.602L877.311,713.292z M520.558,514.703
		l-29.078-13.034L824.419,363.56l20.761,1.598C792.361,389.5,552.661,499.973,520.558,514.703z M804.65,327.777
		c-71.942,25.484-326.978,116.191-343.615,127.282l-1.58,1.053l0.312,1.874c1.333,8.002,2.886,17.554,4.529,27.668
		c7.789,47.935,18.458,113.582,25.769,137.606l5.621-1.709c-7.197-23.648-17.828-89.07-25.591-136.84
		c-1.509-9.289-2.941-18.105-4.199-25.688c24.74-12.999,238.951-89.779,355.108-130.802l0.001,30.394L482.94,498.851l-2.104,0.872
		l20.978,147.324c-30.006-10.01-197.445-65.894-215.607-72.706l-1.2-0.45l-0.301,0.15c-4.28-18.419-24.835-94.224-31.618-119.163
		l22.088,16.812l21.571,84.83l5.693-1.447l-19.749-77.663l24.356,18.538l-0.303,0.082l18.549,68.092l5.669-1.544l-16.644-61.096
		l30.677,23.349l10.496,42.028l5.699-1.423l-8.719-34.916l84.429,64.261c1.586,6.306,2.976,11.344,4.097,14.707l5.573-1.857
		c-8.447-25.34-33.873-153.877-41.094-196.45c23.288-12.107,232.027-85.417,345.336-124.63l2.005,26.075
		c-33.922,11.289-79.948,26.755-126.366,42.814c-121.748,42.119-188.141,68.136-197.332,77.328l-1.069,1.069l0.248,1.49
		c6.229,37.373,33.725,177.423,34.002,178.834l5.765-1.133c-0.273-1.391-26.997-137.509-33.701-177.051
		c23.561-18.225,248.714-94.571,370.101-134.235l-1.082,25.982L804.65,327.777z M284.945,751.577l-24.781,15.488
		c-4.298-53.041-62.064-329.729-68.542-360.654l39.759-16.568l1.158,4.185l-21.352,25.065l-2.013,2.362l36.232,27.578
		c2.099,7.701,30.208,110.912,33.888,127.677c-13.204,6.397-25.326,11.461-25.461,11.517l-2.357,0.983l0.645,2.471
		C264.42,638.75,286.699,731.247,284.945,751.577z M285.349,580.286c24.291,8.846,197.77,66.718,217.391,73.262l3.574,25.1
		l-243.367-87.949C268.561,588.236,276.923,584.464,285.349,580.286z M474.396,119.168l226.288,178.584
		c-94.998,33.112-287.446,100.732-300.113,109.502l-1.532,1.061l0.307,1.837c4.846,29.075,23.732,126.628,35.346,175.565
		L217.672,420.541L474.396,119.168z M254.581,368.152l-6.005-20.552l29.618-7.167L254.581,368.152z M293.288,322.716l-8.609,10.105
		l-43.469,10.518l8.814,30.162l-12.885,15.126l-13.773-49.796L293.288,322.716z M229.803,384.136l-41.744,17.396l-21.954-6.146
		c25.56-9.823,50.379-19.275,60.658-22.238L229.803,384.136z M160.604,399.945l25.134,7.038
		c5.259,25.13,64.76,310.213,68.609,360.929l-28.258-10.466C221.899,734.019,175.011,472.104,160.604,399.945z M290.826,751.554
		c1.446-25.459-25.076-130.506-31.622-155.96l248.048,89.641l22.886,160.72C501.15,834.888,326.475,768.08,290.826,751.554z
		 M487.725,506.423l30.037,13.464c7.329,105.729,55.342,344.447,63.082,382.47l-38.733-13.986L487.725,506.423z M674.291,871.05
		l-53.006,33.73l-27.092-0.691l77.109-51.965L674.291,871.05z M839.622,756.913l-53.041,33.752h-24.082l74.522-50.222
		L839.622,756.913z M586.768,902.009c-7.162-35.143-55.703-275.955-63.129-382.256c36.239-16.635,295.108-135.944,330.318-152.172
		l17.319,342.693L586.768,902.009z"/>
	<path style="fill:#231F20;" d="M778.894,481.753c-3.647-10.944-12.317-17.478-23.191-17.478c-5.281,0-11.119,1.487-17.351,4.419
		c-5.129,2.414-12.062,5.285-20.134,8.527c-0.098,0.006-0.176,0.01-0.21,0.012l0.005,0.071c-3.739,1.499-7.719,3.079-11.878,4.729
		c-24.163,9.587-54.233,21.519-78.662,34.547c-1.365,0.71-33.366,17.693-27.959,44.723c3.028,15.142,15.121,23.827,33.18,23.827
		c7.256,0,14.977-1.482,21.182-4.068c16.014-6.672,91.259-41.893,106.239-51.878C775.792,518.732,783.206,494.69,778.894,481.753z
		 M630.21,521.777c24.164-12.887,54.065-24.751,78.091-34.283c3.899-1.548,7.639-3.031,11.178-4.449
		c5.562-0.168,17.896,0.711,22.929,6.583c2.073,2.42,2.827,5.516,2.181,8.955c-1.366,7.252-8.452,14.927-18.956,20.529
		c-42.485,22.658-73.653,37.386-90.136,42.59c-18.889,5.967-28.123-0.465-30.379-2.429
		C601.489,537.06,629.894,521.942,630.21,521.777z M756.855,524.296c-14.747,9.83-89.337,44.718-105.239,51.344
		c-5.517,2.298-12.413,3.615-18.923,3.615c-7.253,0-18.88-1.688-24.626-11.548c3.229,1.298,7.488,2.338,12.888,2.338
		c4.6,0,10.018-0.753,16.31-2.74c21.25-6.711,61.286-27.093,91.131-43.009c12.241-6.528,20.247-15.504,21.965-24.626
		c0.988-5.251-0.22-10.046-3.494-13.866c-3.778-4.407-9.815-6.593-15.396-7.661c3.531-1.485,6.692-2.868,9.381-4.133
		c5.443-2.562,10.44-3.86,14.85-3.86c11.852,0,16.27,9.413,17.618,13.461C776.584,493.398,771.107,514.794,756.855,524.296z"/>
</g>
</svg>
