<?xml version="1.0" encoding="iso-8859-1"?>
<!-- Generator: Adobe Illustrator 21.1.0, SVG Export Plug-In . SVG Version: 6.00 Build 0)  -->
<svg version="1.1" id="_x5F__1_" xmlns="http://www.w3.org/2000/svg" xmlns:xlink="http://www.w3.org/1999/xlink" x="0px" y="0px"
	 viewBox="0 0 600 450" style="enable-background:new 0 0 600 450;" xml:space="preserve">
<rect id="BG_1_" y="0" style="fill:#0894BA;" width="600" height="450"/>
<g id="Vinyl">
	<circle style="fill:#949494;" cx="250" cy="225" r="210"/>
	<g>
		<circle id="Shadow" style="fill:#80807F;" cx="250" cy="229" r="190"/>
		<circle style="fill:#2C2C2E;" cx="250" cy="225" r="190"/>
		<g>
			<path style="fill:#3D3D3F;" d="M372.124,79.458L250,225L127.876,79.458C144.687,65.337,163.973,54.068,185,46.414
				C205.279,39.031,227.168,35,250,35s44.721,4.031,65,11.414C336.026,54.068,355.313,65.337,372.124,79.458z M127.876,370.542
				c16.811,14.121,36.098,25.389,57.124,33.044C205.279,410.969,227.168,415,250,415s44.721-4.031,65-11.414
				c21.026-7.655,40.313-18.923,57.124-33.044L250,225L127.876,370.542z"/>
		</g>
		<g>
			<path style="fill:#535357;" d="M299.186,41.435L250,225L200.814,41.435C216.502,37.241,232.989,35,250,35
				S283.498,37.241,299.186,41.435z M250,225L250,225l-49.186,183.565C216.502,412.759,232.989,415,250,415
				s33.498-2.241,49.186-6.435L250,225L250,225z"/>
		</g>
		<path style="fill:#131114;" d="M250,383.167c-87.213,0-158.167-70.953-158.167-158.167c0-87.213,70.953-158.167,158.167-158.167
			c87.214,0,158.167,70.953,158.167,158.167C408.167,312.214,337.214,383.167,250,383.167z M250,69.834
			c-85.559,0-155.167,69.607-155.167,155.167c0,85.56,69.607,155.167,155.167,155.167c85.56,0,155.167-69.607,155.167-155.167
			C405.167,139.441,335.56,69.834,250,69.834z"/>
		<path style="fill:#131114;" d="M250,349.833c-68.833,0-124.834-56-124.834-124.833c0-68.833,56-124.834,124.834-124.834
			c68.833,0,124.833,56,124.833,124.834C374.833,293.833,318.833,349.833,250,349.833z M250,103.166
			c-67.179,0-121.833,54.654-121.833,121.834c0,67.179,54.654,121.833,121.833,121.833c67.179,0,121.833-54.654,121.833-121.833
			C371.833,157.821,317.179,103.166,250,103.166z"/>
		<circle style="fill:#131114;" cx="250" cy="225" r="90"/>
		<circle style="fill:#D84500;" cx="250" cy="225" r="65"/>
		<path style="fill:#AF3832;" d="M250,232.5c-4.142,0-7.5-3.358-7.5-7.5v5c0,4.142,3.358,7.5,7.5,7.5c4.142,0,7.5-3.358,7.5-7.5v-5
			C257.5,229.142,254.142,232.5,250,232.5z"/>
	</g>
	<circle style="fill:#F5F5F5;" cx="250" cy="225" r="7.5"/>
</g>
<ellipse transform="matrix(0.2801 -0.96 0.96 0.2801 283.5205 552.8719)" style="fill:#2C2C2E;" cx="510.371" cy="87.407" rx="50" ry="50"/>
<path style="fill:#949494;" d="M396.895,376.683l-11.55-19.97l-5.194,3.004l11.55,19.97c0.829,1.434,2.665,1.924,4.099,1.095l0,0
	C397.234,379.952,397.724,378.117,396.895,376.683z"/>
<path style="fill:#DBDBDB;" d="M513.534,106.398l-16.098-4.468c-0.375,1.345-42.751,153.043-50.004,174.951
	c-6.443,19.464-6.443,19.464-59.392,59.4l0,0c-1.75,1.321-2.098,3.81-0.778,5.56l5.281,7.001c1.32,1.749,3.808,2.098,5.557,0.778
	l0,0c54.966-41.457,57.112-43.076,65.192-67.487C470.674,259.838,512.006,111.909,513.534,106.398z"/>
<path style="fill:#949494;" d="M517.914,92.746c19.319-26.815,38.546-53.708,45.793-63.853c1.606-2.248,1.084-5.371-1.165-6.976
	l-5.46-3.896c-2.247-1.603-5.365-1.086-6.97,1.159c-7.143,9.997-26.378,36.895-45.674,63.68L517.914,92.746z"/>
<path style="fill:#535357;" d="M565.277,32.163c0,0-12.337-9.33-18.104-13.693c-2.245-1.699-5.444-1.205-7.08,1.086l-19.132,26.743
	c-1.601,2.195-1.155,5.267,1.004,6.918l18.045,13.795c2.229,1.704,5.424,1.241,7.077-1.027l19.257-26.939
	C567.907,36.84,567.435,33.792,565.277,32.163z"/>
<path style="fill:#C4C4C4;" d="M536.601,24.437l-8.486,11.862l25.989,19.869l8.58-12.002
	C555.102,38.431,545.005,30.795,536.601,24.437z"/>
<ellipse transform="matrix(0.2801 -0.96 0.96 0.2801 283.5205 552.8719)" style="fill:#C4C4C4;" cx="510.371" cy="87.407" rx="25" ry="25"/>
<path style="fill:#949494;" d="M500.215,64.569c-4.083,1.818-7.661,4.718-10.288,8.451l11.778,21.715l0.006-0.003
	c1.351,2.377,3.772,4.15,6.843,4.507c3.723,0.434,7.477-1.561,9.05-4.963c0.761-1.645,1.168-3.529,1.168-3.529L500.215,64.569z"/>
<path style="fill:#F5F5F5;" d="M518.323,83.203l0.006-0.003l-17.442-32.158c-1.328-2.421-4.367-3.308-6.788-1.98l-7.015,3.846
	c-2.421,1.328-3.308,4.367-1.98,6.788l17.442,32.158l0.006-0.003c1.351,2.377,3.772,4.15,6.843,4.507
	c3.723,0.434,7.415-1.591,9.05-4.963C519.793,88.615,519.601,85.62,518.323,83.203z"/>
<ellipse transform="matrix(0.2801 -0.96 0.96 0.2801 267.6296 593.7288)" style="fill:#C4C4C4;" cx="529.666" cy="118.43" rx="7.5" ry="7.5"/>
<path style="fill:#DBDBDB;" d="M395.264,355.768c-0.086,0.051-27.867,15.951-27.867,15.951c-1.955,1.087-4.419,0.343-5.463-1.637
	l-8.404-16.023c-1.004-1.92-0.299-4.292,1.595-5.339c0,0,27.378-15.614,27.474-15.661c6.271-3.481,14.171-1.242,17.668,5.014
	C403.771,344.343,401.533,352.265,395.264,355.768z"/>
<g id="Button_1_">
	<circle style="fill:#DBDBDB;" cx="50" cy="405" r="25"/>
	<circle style="fill:#949494;" cx="50" cy="400" r="25"/>
	<circle style="fill:#C4C4C4;" cx="50" cy="400" r="20"/>
	<circle style="fill:#949494;" cx="50" cy="390.167" r="5"/>
</g>
<g id="Button">
	<path style="fill:#DBDBDB;" d="M64.579,70h-30c-2.761,0-5-2.239-5-5V35c0-2.761,2.239-5,5-5h30c2.761,0,5,2.239,5,5v30
		C69.579,67.761,67.341,70,64.579,70z"/>
	<path style="fill:#949494;" d="M64.579,65h-30c-2.761,0-5-2.239-5-5V30c0-2.761,2.239-5,5-5h30c2.761,0,5,2.239,5,5v30
		C69.579,62.761,67.341,65,64.579,65z"/>
	<path style="fill:#C4C4C4;" d="M59.579,60h-20c-2.761,0-5-2.239-5-5V35c0-2.761,2.239-5,5-5h20c2.761,0,5,2.239,5,5v20
		C64.579,57.761,62.341,60,59.579,60z"/>
</g>
<g id="Pitch_control">
	<path style="fill:#949494;" d="M565.031,425h-30c-2.762,0-5-2.239-5-5V230c0-2.761,2.238-5,5-5h30c2.761,0,5,2.239,5,5v190
		C570.031,422.761,567.793,425,565.031,425z"/>
	<path style="fill:#80807F;" d="M565.031,225h-30c-2.762,0-5,2.239-5,5v3c0-2.761,2.238-5,5-5h30c2.761,0,5,2.239,5,5v-3
		C570.031,227.239,567.793,225,565.031,225z"/>
	<path style="fill:#80807F;" d="M560.031,310h-20c-2.762,0-5-2.239-5-5v-20c0-2.761,2.238-5,5-5h20c2.761,0,5,2.239,5,5v20
		C565.031,307.761,562.793,310,560.031,310z"/>
	<rect x="546.031" y="245" style="fill:#2C2C2E;" width="8" height="160"/>
	<path style="fill:#F5F5F5;" d="M560.031,300h-20c-2.762,0-5-2.239-5-5v-20c0-2.761,2.238-5,5-5h20c2.761,0,5,2.239,5,5v20
		C565.031,297.761,562.793,300,560.031,300z"/>
	<path style="fill:#DBDBDB;" d="M555.031,295h-10c-2.762,0-5-2.239-5-5v-10c0-2.761,2.238-5,5-5h10c2.761,0,5,2.239,5,5v10
		C560.031,292.761,557.793,295,555.031,295z"/>
</g>
</svg>
