<svg id="_" xmlns="http://www.w3.org/2000/svg" viewBox="0 0 600 450">
  <defs>
    <style>
      .cls-1{fill:#0894ba;}
      .cls-2{fill:#949494;}
      .cls-3{fill:#80807f;}
      .cls-4{fill:#71706f;}
      .cls-5{fill:#c4c4c4;}
      .cls-6{fill:#2c2c2e;}
      .cls-7{fill:#f5f5f5;}
      .cls-8{fill:#dbdbdb;}
    </style>
  </defs>
  <title>Artboard 3</title>
  <rect id="BG" class="cls-1" width="600" height="450"/>
  <g id="Vinyl">
    <circle class="cls-2" cx="250" cy="225" r="210"/>
    <circle id="Shadow" class="cls-3" cx="250" cy="229" r="190"/>
  </g>
  <g id="Button">
    <circle class="cls-4" cx="50" cy="405" r="25"/>
    <circle class="cls-2" cx="50" cy="400" r="25"/>
    <circle class="cls-5" cx="50" cy="400" r="20"/>
    <circle class="cls-2" cx="50" cy="390.17" r="5"/>
  </g>
  <g id="Button-2" data-name="Button">
    <rect class="cls-4" x="29.58" y="30" width="40" height="40" rx="5" ry="5"/>
    <rect class="cls-2" x="29.58" y="25" width="40" height="40" rx="5" ry="5"/>
    <rect class="cls-5" x="34.58" y="30" width="30" height="30" rx="5" ry="5"/>
  </g>
  <g id="Pitch_control" data-name="Pitch control">
    <rect class="cls-2" x="530.03" y="225" width="40" height="200" rx="5" ry="5"/>
    <path class="cls-3" d="M565,225H535a5,5,0,0,0-5,5v3a5,5,0,0,1,5-5h30a5,5,0,0,1,5,5v-3A5,5,0,0,0,565,225Z"/>
    <rect class="cls-3" x="535.03" y="280" width="30" height="30" rx="5" ry="5"/>
    <rect class="cls-6" x="546.03" y="245" width="8" height="160"/>
    <rect class="cls-7" x="535.03" y="270" width="30" height="30" rx="5" ry="5"/>
    <rect class="cls-8" x="540.03" y="275" width="20" height="20" rx="5" ry="5"/>
  </g>
</svg>
