<?xml version="1.0"?><svg width="366.05777000000006" height="347.94235" xmlns="http://www.w3.org/2000/svg">
 <metadata id="metadata25">image/svg+xmlSimple TurntableAJ Ashtonrecord playerturntableLPvinylmusicDJstereo</metadata>

 <g>
  <title>Layer 1</title>
  <path transform="rotate(4.75812, 186.461, 207.98)" fill="#3f3f3f" fill-rule="evenodd" stroke="#000000" stroke-width="3.75" stroke-linecap="round" stroke-linejoin="round" stroke-miterlimit="4" id="path2842" d="m207.725754,91.501076l-26.97319,156.304665l-29.075668,38.393906l10.800034,24.945679l5.343887,-14.122284l9.906082,27.435242l-1.62619,-6.292206l-1.567154,-31.233429l10.032196,-28.109192l36.679962,-153.261093l-13.519958,-14.061287z"/>
  <g stroke="#000000" id="g2851">
   <path stroke="#000000" fill="#000000" fill-rule="evenodd" stroke-width="0.75" stroke-linecap="round" stroke-linejoin="round" stroke-miterlimit="4" id="path2852" d="m219.174225,35.781986l-3.072662,57.215366l15.238693,16.064941l8.206223,-72.063847l-20.372253,-1.216461z"/>
   <path fill="#000000" fill-rule="evenodd" stroke="#000000" stroke-width="0.75" stroke-linecap="round" stroke-linejoin="round" stroke-miterlimit="4" id="path2854" d="m221.426605,87.366531l0.466904,8.225792l7.197891,7.079132l-1.330032,-6.442322l-6.334763,-8.862602z"/>
  </g>
  <rect fill="#000000" stroke="#000000" stroke-width="3.750013" stroke-linecap="round" stroke-linejoin="round" stroke-miterlimit="4" id="rect2864" transform="rotate(-24.3844, 225.215, 46.3818) matrix(0.41232, -0.919705, 0.911039, 0.416242, 0, 0.00990233)" y="193.170515" x="27.259225" ry="12.00003" rx="12.00003" height="61.901626" width="47.505859"/>
 </g>
</svg>
