<svg id="Layer_1" data-name="Layer 1" xmlns="http://www.w3.org/2000/svg" viewBox="0 0 1280 800"><defs><style>.cls-1{fill:#2c2c2e;}.cls-2{fill:#3d3d3f;}.cls-3{fill:#535357;}.cls-4{fill:#131114;}.cls-5{fill:#d84500;}.cls-6{fill:#af3832;}.cls-7{fill:#f5f5f5;}</style></defs><title>Artboard 1</title><circle class="cls-1" cx="639.39" cy="400" r="190"/><path class="cls-2" d="M761.51,254.46,639.39,400,517.26,254.46a189.75,189.75,0,0,1,244.25,0ZM517.26,545.54a189.75,189.75,0,0,0,244.25,0L639.39,400Z"/><path class="cls-3" d="M688.57,216.43,639.39,400,590.2,216.43a191.2,191.2,0,0,1,98.37,0ZM639.39,400h0L590.2,583.57a191.2,191.2,0,0,0,98.37,0L639.39,400Z"/><path class="cls-4" d="M639.39,558.17c-87.21,0-158.17-71-158.17-158.17s71-158.17,158.17-158.17,158.17,71,158.17,158.17S726.6,558.17,639.39,558.17Zm0-313.33c-85.56,0-155.17,69.61-155.17,155.17s69.61,155.17,155.17,155.17S794.55,485.56,794.55,400,724.95,244.83,639.39,244.83Z"/><path class="cls-4" d="M639.39,524.83A124.83,124.83,0,1,1,764.22,400,125,125,0,0,1,639.39,524.83Zm0-246.67A121.83,121.83,0,1,0,761.22,400,122,122,0,0,0,639.39,278.17Z"/><circle class="cls-4" cx="639.39" cy="400" r="90"/><circle class="cls-5" cx="639.39" cy="400" r="65"/><path class="cls-6" d="M639.39,407.5a7.5,7.5,0,0,1-7.5-7.5v5a7.5,7.5,0,1,0,15,0v-5A7.5,7.5,0,0,1,639.39,407.5Z"/><circle class="cls-7" cx="639.39" cy="400" r="7.5"/></svg>